<svg xmlns="http://www.w3.org/2000/svg" xmlns:xlink="http://www.w3.org/1999/xlink" width="38.15" height="635.315" viewBox="0 0 38.15 635.315">
  <defs>
    <linearGradient id="linear-gradient" x1="0.5" x2="0.5" y2="1" gradientUnits="objectBoundingBox">
      <stop offset="0" stop-color="#97b866"/>
      <stop offset="1" stop-color="#82ae40"/>
    </linearGradient>
  </defs>
  <g id="Component_36_27" data-name="Component 36 – 27" transform="translate(0.15)">
    <path id="Path_1887" data-name="Path 1887" d="M15.533,31.563V22.55h7.075v9.012a1.791,1.791,0,0,0,1.769,1.8h5.306a1.791,1.791,0,0,0,1.769-1.8V18.945h3.007a.9.9,0,0,0,.584-1.568L20.255,3.8a1.757,1.757,0,0,0-2.37,0L3.1,17.377a.9.9,0,0,0,.584,1.568H6.689V31.563a1.791,1.791,0,0,0,1.769,1.8h5.306A1.791,1.791,0,0,0,15.533,31.563Z" transform="translate(2.197 -3.345)" fill="#82ae3f"/>
    <path id="Path_1833" data-name="Path 1833" d="M120.968,258.958a.716.716,0,0,0-.717-.716h-2.5a.716.716,0,0,0-.716.716v2.5a.716.716,0,0,0,.716.716h2.5a.716.716,0,0,0,.717-.716v-2.5Z" transform="translate(-103.817 -177.541)" fill="url(#linear-gradient)"/>
    <path id="Path_1834" data-name="Path 1834" d="M217.6,258.958a.716.716,0,0,0-.716-.716h-2.5a.716.716,0,0,0-.716.716v2.5a.716.716,0,0,0,.716.716h2.5a.716.716,0,0,0,.716-.716Z" transform="translate(-194.203 -177.541)" fill="#b1b1b1"/>
    <path id="Path_1835" data-name="Path 1835" d="M314.231,258.958a.716.716,0,0,0-.716-.716h-2.5a.716.716,0,0,0-.717.716v2.5a.716.716,0,0,0,.717.716h2.5a.716.716,0,0,0,.716-.716Z" transform="translate(-284.582 -177.541)" fill="#b1b1b1"/>
    <path id="Path_1836" data-name="Path 1836" d="M120.968,355.591a.716.716,0,0,0-.717-.716h-2.5a.716.716,0,0,0-.716.716v2.5a.716.716,0,0,0,.716.716h2.5a.716.716,0,0,0,.717-.716v-2.5Z" transform="translate(-103.817 -267.925)" fill="#b1b1b1"/>
    <path id="Path_1837" data-name="Path 1837" d="M217.6,355.591a.716.716,0,0,0-.716-.716h-2.5a.716.716,0,0,0-.716.716v2.5a.716.716,0,0,0,.716.716h2.5a.716.716,0,0,0,.716-.716Z" transform="translate(-194.203 -267.925)" fill="#b1b1b1"/>
    <path id="Path_1838" data-name="Path 1838" d="M314.231,355.591a.716.716,0,0,0-.716-.716h-2.5a.716.716,0,0,0-.717.716v2.5a.716.716,0,0,0,.717.716h2.5a.716.716,0,0,0,.716-.716v-2.5Z" transform="translate(-284.582 -267.925)" fill="#b1b1b1"/>
    <path id="Path_1839" data-name="Path 1839" d="M33.532,54.156v3.819a3.119,3.119,0,0,1-3.126,3.117H28.434a3.135,3.135,0,0,1-3.145-3.117V54.142H16.4v3.832a3.135,3.135,0,0,1-3.144,3.117H11.285a3.119,3.119,0,0,1-3.126-3.117V54.156a2.843,2.843,0,0,0-2.748,2.828v22.38a2.844,2.844,0,0,0,2.83,2.846H33.45a2.847,2.847,0,0,0,2.83-2.846V56.983A2.842,2.842,0,0,0,33.532,54.156Zm-.916,23.814a1.223,1.223,0,0,1-1.223,1.223H10.244a1.223,1.223,0,0,1-1.223-1.223V66.409a1.223,1.223,0,0,1,1.223-1.224H31.393a1.223,1.223,0,0,1,1.223,1.224v11.56Z" transform="translate(0.588 13.36)" fill="#b1b1b1"/>
    <path id="Path_1840" data-name="Path 1840" d="M80.622,8.4h1.951a1.072,1.072,0,0,0,1.072-1.071V1.072A1.072,1.072,0,0,0,82.573,0H80.622A1.072,1.072,0,0,0,79.55,1.072v6.26A1.072,1.072,0,0,0,80.622,8.4Z" transform="translate(-68.756 64)" fill="#b1b1b1"/>
    <path id="Path_1841" data-name="Path 1841" d="M345.53,8.4h1.951a1.071,1.071,0,0,0,1.072-1.071V1.072A1.072,1.072,0,0,0,347.481,0H345.53a1.072,1.072,0,0,0-1.072,1.072v6.26A1.072,1.072,0,0,0,345.53,8.4Z" transform="translate(-316.533 64)" fill="#b1b1b1"/>
    <path id="Path_1912" data-name="Path 1912" d="M232.753,17.885,219.55,4.679a1.984,1.984,0,1,0-2.807,2.806l13.206,13.2a1.983,1.983,0,0,0,2.8-2.8Z" transform="translate(-197.864 191.171)" fill="#b1b1b1"/>
    <path id="Path_1913" data-name="Path 1913" d="M142.3,82.905l-.1.5a21.322,21.322,0,0,1-4.7,9.524l7.184,7.184a21.25,21.25,0,0,1,9.478-4.749l.5-.1Z" transform="translate(-124.396 117.577)" fill="#b1b1b1"/>
    <path id="Path_1914" data-name="Path 1914" d="M35.917,256.989l-4.91,4.909a2.975,2.975,0,0,0,0,4.208l2.8,2.8a2.975,2.975,0,0,0,4.208,0L42.93,264Zm.7,7.715a.992.992,0,0,1-1.4-1.4l1.4-1.4a.992.992,0,1,1,1.4,1.4Z" transform="translate(-24.137 -44.996)" fill="#b1b1b1"/>
    <path id="Path_1915" data-name="Path 1915" d="M198.058,352.634l1.349-1.349a2.973,2.973,0,0,0,0-4.207l-1-1a18.781,18.781,0,0,0-1.6,1.208l1.2,1.2a.99.99,0,0,1,0,1.4l-1.371,1.372-2.016-1.953-2.805,2.805,4.5,4.36a1.984,1.984,0,0,0,2.8-2.807Z" transform="translate(-175.124 -128.192)" fill="#b1b1b1"/>
    <path id="Path_1916" data-name="Path 1916" d="M332.856,0a.991.991,0,0,0-.992.992V2.975a.992.992,0,1,0,1.984,0V.992A.991.991,0,0,0,332.856,0Z" transform="translate(-305.914 195)" fill="#b1b1b1"/>
    <path id="Path_1917" data-name="Path 1917" d="M424.839,120h-1.984a.992.992,0,1,0,0,1.984h1.984a.992.992,0,0,0,0-1.984Z" transform="translate(-389.963 82.935)" fill="#b1b1b1"/>
    <path id="Path_1918" data-name="Path 1918" d="M395.54,30.29a.991.991,0,0,0-1.4,0l-1.984,1.984a.992.992,0,0,0,1.4,1.4l1.984-1.984A.991.991,0,0,0,395.54,30.29Z" transform="translate(-361.947 166.984)" fill="#b1b1b1"/>
    <path id="Path_1919" data-name="Path 1919" d="M40.616,8.907c0-.52-.528-.672-.94-.764V9.656C40.135,9.625,40.616,9.41,40.616,8.907Z" transform="translate(-8.186 333.92)" fill="#b1b1b1"/>
    <path id="Path_1920" data-name="Path 1920" d="M38.417,4.185c-.52.015-.857.321-.857.65,0,.382.285.6.857.718V4.185Z" transform="translate(-7.385 335.417)" fill="#b1b1b1"/>
    <path id="Path_1921" data-name="Path 1921" d="M36.47,9.243a4.622,4.622,0,1,0-4.623-4.621A4.627,4.627,0,0,0,36.47,9.243ZM34.438,3.427a1.673,1.673,0,0,1,1.819-1.6V1.416a.231.231,0,1,1,.458,0v.407c.6.016,1.819.389,1.819,1.14a.459.459,0,0,1-.482.473c-.5,0-.49-.818-1.337-.833V4.054c1.01.214,1.9.512,1.9,1.689,0,1.023-.764,1.544-1.9,1.613v.473a.231.231,0,1,1-.458,0V7.356c-1.291-.032-1.933-.8-1.933-1.408a.44.44,0,0,1,.473-.481c.856,0,.191,1.054,1.46,1.109v-1.6C35.124,4.772,34.438,4.276,34.438,3.427Z" transform="translate(-5.224 337)" fill="#b1b1b1"/>
    <path id="Path_1922" data-name="Path 1922" d="M6.123,33.113H2.138A1.328,1.328,0,0,0,.81,34.442v5.977a1.329,1.329,0,0,0,1.328,1.329H6.123a1.328,1.328,0,0,0,1.328-1.329V34.442A1.328,1.328,0,0,0,6.123,33.113Z" transform="translate(6.516 324.475)" fill="#b1b1b1"/>
    <path id="Path_1923" data-name="Path 1923" d="M22.687,25.637H18.7a1.328,1.328,0,0,0-1.328,1.329V37.592A1.328,1.328,0,0,0,18.7,38.92h3.985a1.328,1.328,0,0,0,1.329-1.329V26.964A1.328,1.328,0,0,0,22.687,25.637Z" transform="translate(0.25 327.302)" fill="#b1b1b1"/>
    <path id="Path_1924" data-name="Path 1924" d="M39.254,17.091H35.27a1.328,1.328,0,0,0-1.329,1.328V34.358a1.328,1.328,0,0,0,1.329,1.329h3.984a1.328,1.328,0,0,0,1.329-1.329V18.42A1.328,1.328,0,0,0,39.254,17.091Z" transform="translate(-6.016 330.535)" fill="#b1b1b1"/>
    <path id="Path_1925" data-name="Path 1925" d="M18.558,10.544l-3.3-.69a.664.664,0,0,0-.722.962l.731,1.375L.644,19.735a.664.664,0,0,0,.305,1.253.653.653,0,0,0,.3-.074l14.638-7.551.671,1.261a.664.664,0,0,0,.586.353h.034a.663.663,0,0,0,.581-.412l1.274-3.12a.661.661,0,0,0-.029-.563A.675.675,0,0,0,18.558,10.544Z" transform="translate(6.714 333.278)" fill="#b1b1b1"/>
    <path id="Path_18777" data-name="Path 18777" d="M120.841,258.935a.693.693,0,0,0-.693-.693h-2.419a.693.693,0,0,0-.693.693v2.419a.693.693,0,0,0,.693.693h2.419a.693.693,0,0,0,.693-.693v-2.419Z" transform="translate(-106.05 -113.082)" fill="#b1b1b1"/>
    <path id="Path_18778" data-name="Path 18778" d="M217.475,258.935a.693.693,0,0,0-.693-.693h-2.42a.693.693,0,0,0-.693.693v2.419a.693.693,0,0,0,.693.693h2.42a.693.693,0,0,0,.693-.693Z" transform="translate(-196.638 -113.082)" fill="#b1b1b1"/>
    <path id="Path_18779" data-name="Path 18779" d="M314.1,258.935a.693.693,0,0,0-.693-.693h-2.419a.693.693,0,0,0-.693.693v2.419a.693.693,0,0,0,.693.693h2.419a.693.693,0,0,0,.693-.693Z" transform="translate(-287.298 -113.082)" fill="#b1b1b1"/>
    <path id="Path_18780" data-name="Path 18780" d="M120.841,355.568a.693.693,0,0,0-.693-.693h-2.419a.693.693,0,0,0-.693.693v2.419a.693.693,0,0,0,.693.693h2.419a.693.693,0,0,0,.693-.693v-2.419Z" transform="translate(-106.05 -203.668)" fill="#b1b1b1"/>
    <path id="Path_18781" data-name="Path 18781" d="M217.475,355.568a.693.693,0,0,0-.693-.693h-2.42a.693.693,0,0,0-.693.693v2.419a.693.693,0,0,0,.693.693h2.42a.693.693,0,0,0,.693-.693Z" transform="translate(-196.638 -203.668)" fill="#b1b1b1"/>
    <path id="Path_18783" data-name="Path 18783" d="M32.621,54.155v3.7A3.018,3.018,0,0,1,29.6,60.866H27.688a3.033,3.033,0,0,1-3.043-3.016V54.142h-8.6V57.85A3.033,3.033,0,0,1,13,60.866H11.094A3.018,3.018,0,0,1,8.07,57.85v-3.7a2.75,2.75,0,0,0-2.659,2.736V78.546A2.752,2.752,0,0,0,8.149,81.3H32.542a2.755,2.755,0,0,0,2.738-2.754V56.891A2.75,2.75,0,0,0,32.621,54.155ZM31.735,77.2a1.184,1.184,0,0,1-1.184,1.184H10.087A1.184,1.184,0,0,1,8.9,77.2V66.012a1.184,1.184,0,0,1,1.184-1.184H30.551a1.184,1.184,0,0,1,1.184,1.184V77.2Z" transform="translate(-1.411 78.246)" fill="#b1b1b1"/>
    <path id="Path_18784" data-name="Path 18784" d="M80.587,8.131h1.887a1.037,1.037,0,0,0,1.037-1.037V1.037A1.037,1.037,0,0,0,82.475,0H80.587A1.037,1.037,0,0,0,79.55,1.037V7.095A1.037,1.037,0,0,0,80.587,8.131Z" transform="translate(-70.911 129)" fill="#b1b1b1"/>
    <path id="Path_18785" data-name="Path 18785" d="M345.5,8.131h1.887a1.037,1.037,0,0,0,1.037-1.037V1.037A1.037,1.037,0,0,0,347.383,0H345.5a1.037,1.037,0,0,0-1.037,1.037V7.095A1.037,1.037,0,0,0,345.5,8.131Z" transform="translate(-319.242 129)" fill="#b1b1b1"/>
    <circle id="Ellipse_135" data-name="Ellipse 135" cx="5.5" cy="5.5" r="5.5" transform="translate(27 150.405)" fill="#fff"/>
    <path id="Path_18788" data-name="Path 18788" d="M3.064,0A3.064,3.064,0,1,0,6.128,3.064,3.068,3.068,0,0,0,3.064,0ZM.561,3.064a2.5,2.5,0,0,1,4.132-1.9L1.167,4.693A2.491,2.491,0,0,1,.561,3.064Zm2.5,2.5a2.49,2.49,0,0,1-1.487-.491l3.5-3.5a2.5,2.5,0,0,1-2.012,3.99Z" transform="translate(29.45 152.855)" fill="#e44949"/>
    <g id="manage" transform="translate(4 400)">
      <g id="Rectangle_1903" data-name="Rectangle 1903" transform="translate(3.14 3.077)">
        <rect id="Rectangle_1907" data-name="Rectangle 1907" width="4.485" height="4.485" fill="none"/>
        <path id="Path_18798" data-name="Path 18798" d="M160.865,121.474H156.38V117h4.485Zm-3.587-.892h2.691v-2.691h-2.691Z" transform="translate(-156.38 -116.995)" fill="#b1b1b1"/>
      </g>
      <g id="surface1">
        <g id="Path_18789" data-name="Path 18789">
          <path id="Path_18799" data-name="Path 18799" d="M164.011,115.159a9.2,9.2,0,0,0-5.639-4.182v-5.414a1.128,1.128,0,0,0-.3-.737l-6.462-6.783a1.091,1.091,0,0,0-.773-.334H140.577a3.857,3.857,0,0,0-3.848,3.881v19.36a3.835,3.835,0,0,0,3.813,3.859h7.869a9.173,9.173,0,1,0,15.6-9.652Zm-14.878,4.722a7.015,7.015,0,0,1,7.005-7.007h0a7.006,7.006,0,1,1,.109,14.012h-.109A7.015,7.015,0,0,1,149.134,119.88ZM151.9,101.5l2.841,2.99h-1.758a1.087,1.087,0,0,1-1.08-1.075Zm-9.587,16.768h4.794a9.081,9.081,0,0,0,.294,4.373h-6.828a1.679,1.679,0,0,1-1.678-1.67V101.591a1.7,1.7,0,0,1,1.684-1.711h9.159v3.542a3.252,3.252,0,0,0,3.24,3.247h3.229v4.03h-.061a9.3,9.3,0,0,0-5.952,2.176H142.3a1.083,1.083,0,0,0,0,2.165h6.04a10.741,10.741,0,0,0-.572,1.071H142.3a1.083,1.083,0,0,0,0,2.165Z" transform="translate(-136.729 -97.71)" fill="#b1b1b1"/>
        </g>
      </g>
      <g id="Rectangle_1904" data-name="Rectangle 1904" transform="translate(3.14 8.459)">
        <rect id="Rectangle_1908" data-name="Rectangle 1908" width="4.485" height="4.485" transform="translate(0 0)" fill="none"/>
        <path id="Path_18800" data-name="Path 18800" d="M160.865,155.135H156.38V150.65h4.485Zm-3.587-.9h2.691v-2.692h-2.691Z" transform="translate(-156.38 -150.65)" fill="#b1b1b1"/>
      </g>
      <g id="Ellipse_137" data-name="Ellipse 137" transform="translate(22.877 24.607)">
        <circle id="Ellipse_139" data-name="Ellipse 139" cx="2.691" cy="2.691" r="2.691" fill="#fff"/>
      </g>
      <g id="path" transform="translate(22.505 24.235)">
        <path id="Path_18801" data-name="Path 18801" d="M278.463,250.271a2.908,2.908,0,0,1,2.173-.887,3.036,3.036,0,0,1,2.173.887,2.91,2.91,0,0,1,.888,2.173,3.036,3.036,0,0,1-.888,2.175,2.908,2.908,0,0,1-2.173.887,3.036,3.036,0,0,1-2.173-.887,2.913,2.913,0,0,1-.888-2.175A2.975,2.975,0,0,1,278.463,250.271Zm.428,3.888a2.365,2.365,0,0,0,1.715.735,2.323,2.323,0,0,0,1.714-.735,2.368,2.368,0,0,0,.735-1.714,2.272,2.272,0,0,0-.735-1.714,2.368,2.368,0,0,0-1.714-.735,2.315,2.315,0,0,0-1.715.735,2.365,2.365,0,0,0-.735,1.714A2.638,2.638,0,0,0,278.891,254.158Zm2.05-3.276v1.224h1.226v.612h-1.226v1.226h-.61v-1.226h-1.226v-.612h1.226v-1.224Z" transform="translate(-277.573 -249.383)" fill="#b1b1b1"/>
      </g>
      <g id="path-2" data-name="path" transform="translate(4.281 4.423)">
        <path id="Path_18802" data-name="Path 18802" d="M164.265,126.807l1.416-1.417.187.187-1.6,1.6-.749-.748.187-.187Z" transform="translate(-163.52 -125.39)" fill="#5ab741"/>
      </g>
      <g id="path-3" data-name="path" transform="translate(4.471 9.91)">
        <path id="Path_18803" data-name="Path 18803" d="M166.533,159.906l-.729.729.729.73-.179.182-.729-.73-.73.73-.185-.176.73-.73-.73-.729.182-.182.73.729.729-.729Z" transform="translate(-164.71 -159.73)" fill="#bf2828"/>
      </g>
    </g>
    <text id="KWD" transform="translate(18 424.316)" fill="#b1b1b1" font-size="5" font-family="Roboto-Bold, Roboto" font-weight="700" opacity="0.61"><tspan x="0" y="0">KWD</tspan></text>
    <g id="Group_2714" data-name="Group 2714" transform="translate(0 531)">
      <g id="Group_2713" data-name="Group 2713">
        <path id="Path_18845" data-name="Path 18845" d="M25.234,9.3a.617.617,0,0,0,.609-.625v-6.8A1.854,1.854,0,0,0,24.015,0H1.835A1.854,1.854,0,0,0,.007,1.875V30.126A1.854,1.854,0,0,0,1.835,32h22.18a1.854,1.854,0,0,0,1.828-1.875v-4.6a.61.61,0,1,0-1.219,0v4.6a.618.618,0,0,1-.609.625H1.835a.618.618,0,0,1-.609-.625V1.875a.618.618,0,0,1,.609-.625h22.18a.618.618,0,0,1,.609.625v6.8A.617.617,0,0,0,25.234,9.3Z" transform="translate(-0.007)" fill="#b1b1b1" stroke="#b1b1b1" stroke-width="0.3"/>
      </g>
    </g>
    <g id="Group_2716" data-name="Group 2716" transform="translate(6.992 533.783)">
      <g id="Group_2715" data-name="Group 2715">
        <path id="Path_18846" data-name="Path 18846" d="M126.452,54a6.442,6.442,0,0,0-4.422,11.13.694.694,0,0,0,.075.07,6.433,6.433,0,0,0,8.693,0,.7.7,0,0,0,.075-.07A6.442,6.442,0,0,0,126.452,54Zm0,11.489a5.017,5.017,0,0,1-3.047-1.028,3.5,3.5,0,0,1,6.094,0A5.017,5.017,0,0,1,126.452,65.489Zm-1.121-5.324V59.71a1.121,1.121,0,1,1,2.242,0v.455a1.121,1.121,0,1,1-2.242,0Zm5.18,3.27a4.86,4.86,0,0,0-2.064-1.73,2.509,2.509,0,0,0,.527-1.54V59.71a2.522,2.522,0,1,0-5.044,0v.455a2.509,2.509,0,0,0,.527,1.54,4.86,4.86,0,0,0-2.064,1.73,5.044,5.044,0,1,1,8.118,0Z" transform="translate(-120.007 -54)" fill="#b1b1b1" stroke="#b1b1b1" stroke-width="0.3"/>
      </g>
    </g>
    <g id="Group_2718" data-name="Group 2718" transform="translate(12.368 557.816)">
      <g id="Group_2717" data-name="Group 2717">
        <path id="Path_18847" data-name="Path 18847" d="M206.491,438h-3.783a.7.7,0,0,0,0,1.4h3.783a.7.7,0,0,0,0-1.4Z" transform="translate(-202.007 -438)" fill="#b1b1b1" stroke="#b1b1b1" stroke-width="0.3"/>
      </g>
    </g>
    <g id="Group_2720" data-name="Group 2720" transform="translate(6.727 554.759)">
      <g id="Group_2719" data-name="Group 2719">
        <path id="Path_18848" data-name="Path 18848" d="M124.656,382h-9.948a.7.7,0,1,0,0,1.4h9.948a.7.7,0,1,0,0-1.4Z" transform="translate(-114.007 -382)" fill="#b1b1b1" stroke="#b1b1b1" stroke-width="0.3"/>
      </g>
    </g>
    <g id="Group_2722" data-name="Group 2722" transform="translate(6.727 551.275)">
      <g id="Group_2721" data-name="Group 2721">
        <path id="Path_18849" data-name="Path 18849" d="M124.656,326h-9.948a.7.7,0,1,0,0,1.4h9.948a.7.7,0,1,0,0-1.4Z" transform="translate(-114.007 -326)" fill="#b1b1b1" stroke="#b1b1b1" stroke-width="0.3"/>
      </g>
    </g>
    <g id="Group_2724" data-name="Group 2724" transform="translate(3.994 547.793)">
      <g id="Group_2723" data-name="Group 2723">
        <path id="Path_18850" data-name="Path 18850" d="M72.484,270.205a.7.7,0,1,0,.205.5A.706.706,0,0,0,72.484,270.205Z" transform="translate(-71.287 -270)" fill="#b1b1b1" stroke="#b1b1b1" stroke-width="0.3"/>
      </g>
    </g>
    <g id="Group_2726" data-name="Group 2726" transform="translate(3.994 551.275)">
      <g id="Group_2725" data-name="Group 2725">
        <path id="Path_18851" data-name="Path 18851" d="M72.484,326.205a.7.7,0,1,0,.205.5A.707.707,0,0,0,72.484,326.205Z" transform="translate(-71.287 -326)" fill="#b1b1b1" stroke="#b1b1b1" stroke-width="0.3"/>
      </g>
    </g>
    <g id="Group_2728" data-name="Group 2728" transform="translate(3.994 554.759)">
      <g id="Group_2727" data-name="Group 2727">
        <path id="Path_18852" data-name="Path 18852" d="M72.484,382.205a.7.7,0,1,0,.205.5A.707.707,0,0,0,72.484,382.205Z" transform="translate(-71.287 -382)" fill="#b1b1b1" stroke="#b1b1b1" stroke-width="0.3"/>
      </g>
    </g>
    <g id="Group_2730" data-name="Group 2730" transform="translate(6.727 547.793)">
      <g id="Group_2729" data-name="Group 2729">
        <path id="Path_18853" data-name="Path 18853" d="M124.656,270h-9.948a.7.7,0,1,0,0,1.4h9.948a.7.7,0,1,0,0-1.4Z" transform="translate(-114.007 -270)" fill="#b1b1b1" stroke="#b1b1b1" stroke-width="0.3"/>
      </g>
    </g>
    <g id="Group_2732" data-name="Group 2732" transform="translate(20.979 532.866)">
      <g id="Group_2731" data-name="Group 2731">
        <path id="Path_18854" data-name="Path 18854" d="M311.139,125.071a2.942,2.942,0,0,0-4.019,1.077l-2.513,4.352-6.3,10.918a.7.7,0,0,0-.09.273l-.621,5.559a.7.7,0,0,0,1.112.642l4.5-3.317a.7.7,0,0,0,.191-.214l8.816-15.27A2.946,2.946,0,0,0,311.139,125.071Zm-11.976,20.742.324-2.9,2.028,1.171Zm3.373-2.76-2.67-1.541,7.075-12.254,2.67,1.541ZM311,128.389l-.691,1.2-2.67-1.541.691-1.2a1.541,1.541,0,0,1,2.67,1.541Z" transform="translate(-297.589 -124.675)" fill="#b1b1b1" stroke="#b1b1b1" stroke-width="0.3"/>
      </g>
    </g>
    <g id="Group_915" data-name="Group 915" transform="translate(3.999 465)">
      <g id="Group_914" data-name="Group 914">
        <path id="Path_1926" data-name="Path 1926" d="M21.756,0,15.333,6.424c-.64.625-.5,1.066.4,1.066h3.585V15.3a2.442,2.442,0,0,0,2.442,2.442h0A2.442,2.442,0,0,0,24.2,15.3V7.489h3.587c.892,0,1.033-.441.394-1.066Z" transform="translate(-7.487)" fill="#b1b1b1"/>
        <path id="Path_1927" data-name="Path 1927" d="M30.99,25.77H27.3a.609.609,0,0,0-.61.61V37.33H7.644V26.38a.61.61,0,0,0-.61-.61H3.341a.61.61,0,0,0-.61.61V38.871A3.375,3.375,0,0,0,6.1,42.242H28.228A3.375,3.375,0,0,0,31.6,38.871V26.38A.609.609,0,0,0,30.99,25.77Z" transform="translate(-2.731 -10.04)" fill="#b1b1b1"/>
      </g>
    </g>
    <g id="Group_7133" data-name="Group 7133" transform="translate(3.999 597)">
      <g id="Group_7112" data-name="Group 7112" transform="translate(0 0)">
        <g id="Group_7111" data-name="Group 7111">
          <path id="Path_21526" data-name="Path 21526" d="M83.845,2.554H75.8V.639A.629.629,0,0,0,75.182,0h-9.9a.629.629,0,0,0-.619.638h0V2.554H56.619A.629.629,0,0,0,56,3.193h0V37.676a.629.629,0,0,0,.618.639H83.844a.629.629,0,0,0,.619-.638h0V3.193A.629.629,0,0,0,83.845,2.554ZM65.9,1.277h8.663V5.109H65.9Zm17.325,35.76H57.238V3.831h7.425V5.747a.629.629,0,0,0,.618.639h9.9a.629.629,0,0,0,.619-.638h0V3.831h7.425Z" transform="translate(-56 0)" fill="#b1b1b1"/>
        </g>
      </g>
      <g id="Group_7114" data-name="Group 7114" transform="translate(2.233 30.51)">
        <g id="Group_7113" data-name="Group 7113" transform="translate(0 0)">
          <rect id="Rectangle_3987" data-name="Rectangle 3987" width="14" height="1.032" fill="#b1b1b1"/>
        </g>
      </g>
      <g id="Group_7116" data-name="Group 7116" transform="translate(17.233 30.51)">
        <g id="Group_7115" data-name="Group 7115" transform="translate(0 0)">
          <rect id="Rectangle_3988" data-name="Rectangle 3988" width="9" height="1.032" fill="#b1b1b1"/>
        </g>
      </g>
      <g id="Group_7118" data-name="Group 7118" transform="translate(2.233 32.574)">
        <g id="Group_7117" data-name="Group 7117" transform="translate(0 0)">
          <rect id="Rectangle_3989" data-name="Rectangle 3989" width="24" height="1.032" transform="translate(0 0)" fill="#b1b1b1"/>
        </g>
      </g>
      <g id="Group_7120" data-name="Group 7120" transform="translate(2.233 34.638)">
        <g id="Group_7119" data-name="Group 7119" transform="translate(0 0)">
          <rect id="Rectangle_3990" data-name="Rectangle 3990" width="10" height="1.032" transform="translate(0 0)" fill="#b1b1b1"/>
        </g>
      </g>
      <g id="Group_7122" data-name="Group 7122" transform="translate(13.233 34.638)">
        <g id="Group_7121" data-name="Group 7121" transform="translate(0 0)">
          <rect id="Rectangle_3991" data-name="Rectangle 3991" width="13" height="1.032" transform="translate(0 0)" fill="#b1b1b1"/>
        </g>
      </g>
      <g id="Group_7124" data-name="Group 7124" transform="translate(2.475 18.519)">
        <g id="Group_7123" data-name="Group 7123">
          <path id="Path_21527" data-name="Path 21527" d="M92.332,232H88.619a.629.629,0,0,0-.619.638h0v8.3a.629.629,0,0,0,.618.639h3.713a.629.629,0,0,0,.619-.638h0v-8.3A.629.629,0,0,0,92.332,232Zm-.619,8.3H89.238v-7.024h2.475Z" transform="translate(-88 -232)" fill="#b1b1b1"/>
        </g>
      </g>
      <g id="Group_7126" data-name="Group 7126" transform="translate(8.663 15.964)">
        <g id="Group_7125" data-name="Group 7125" transform="translate(0)">
          <path id="Path_21528" data-name="Path 21528" d="M172.332,200h-3.713a.629.629,0,0,0-.619.638h0v10.856a.629.629,0,0,0,.618.639h3.713a.629.629,0,0,0,.619-.638h0V200.639A.629.629,0,0,0,172.332,200Zm-.619,10.856h-2.475v-9.579h2.475Z" transform="translate(-168 -200)" fill="#b1b1b1"/>
        </g>
      </g>
      <g id="Group_7128" data-name="Group 7128" transform="translate(14.85 13.41)">
        <g id="Group_7127" data-name="Group 7127" transform="translate(0)">
          <path id="Path_21529" data-name="Path 21529" d="M252.332,168h-3.713a.629.629,0,0,0-.619.638h0v13.41a.629.629,0,0,0,.618.639h3.713a.629.629,0,0,0,.619-.638h0v-13.41A.629.629,0,0,0,252.332,168Zm-.619,13.41h-2.475V169.277h2.475Z" transform="translate(-248 -168)" fill="#b1b1b1"/>
        </g>
      </g>
      <g id="Group_7130" data-name="Group 7130" transform="translate(21.038 10.856)">
        <g id="Group_7129" data-name="Group 7129">
          <path id="Path_21530" data-name="Path 21530" d="M332.332,136h-3.713a.629.629,0,0,0-.619.638h0V152.6a.629.629,0,0,0,.618.639h3.713a.629.629,0,0,0,.619-.638h0V136.639A.629.629,0,0,0,332.332,136Zm-.619,15.964h-2.475V137.277h2.475Z" transform="translate(-328 -136)" fill="#b1b1b1"/>
        </g>
      </g>
      <g id="Group_7132" data-name="Group 7132" transform="translate(2.766 6.398)">
        <g id="Group_7131" data-name="Group 7131" transform="translate(0)">
          <path id="Path_21531" data-name="Path 21531" d="M114.244,80.156l-6.188,1.277a.609.609,0,0,0-.222.095l-5.413,3.724H97.04a.6.6,0,0,0-.328.1l-4.95,3.193.656,1.083,4.8-3.1h5.392a.606.606,0,0,0,.343-.107l5.467-3.762,6.068-1.252Z" transform="translate(-91.762 -80.156)" fill="#b1b1b1"/>
        </g>
      </g>
    </g>
    <g id="Group_2767" data-name="Group 2767" transform="translate(5.999 263)">
      <path id="Path_18870" data-name="Path 18870" d="M23.729,28.656a1.156,1.156,0,0,0,1.321-.964l.272-1.81a1.126,1.126,0,0,1,.611-.84l1.639-.819a1.149,1.149,0,0,0,.506-1.557l-.844-1.632a1.127,1.127,0,0,1,0-1.03l.844-1.631a1.164,1.164,0,0,0,.073-.885,1.152,1.152,0,0,0-.578-.672L25.934,16a1.126,1.126,0,0,1-.611-.84l-.272-1.81a1.156,1.156,0,0,0-1.321-.962l-1.813.3a1.123,1.123,0,0,1-.981-.319l-1.288-1.308a1.153,1.153,0,0,0-.819-.34,1.166,1.166,0,0,0-.819.34l-1.288,1.308a1.117,1.117,0,0,1-.981.319l-1.81-.3a1.156,1.156,0,0,0-1.323.962l-.271,1.81a1.13,1.13,0,0,1-.611.84l-1.64.819a1.153,1.153,0,0,0-.506,1.557l.844,1.631a1.117,1.117,0,0,1,0,1.03l-.844,1.632a1.153,1.153,0,0,0,.506,1.557l1.64.819a1.13,1.13,0,0,1,.611.84l.271,1.81a1.156,1.156,0,0,0,1.323.964l1.81-.3a1.111,1.111,0,0,1,.981.317l1.288,1.305a1.144,1.144,0,0,0,1.637,0l1.288-1.305a1.114,1.114,0,0,1,.981-.317Zm-4.9-1.321a6.982,6.982,0,1,1,6.982-6.981A6.988,6.988,0,0,1,18.827,27.334Z" transform="translate(0.458 6.557)" fill="#b1b1b1"/>
      <path id="Path_18871" data-name="Path 18871" d="M17.536,12.991A5.965,5.965,0,1,0,23.5,18.956,5.973,5.973,0,0,0,17.536,12.991Z" transform="translate(1.751 7.943)" fill="#b1b1b1"/>
      <path id="Path_18872" data-name="Path 18872" d="M24.78,23.9l-3.247-3.249-.164,1.1a1.934,1.934,0,0,1-.772,1.268,1.91,1.91,0,0,1-1.437.343l-1.814-.3a.361.361,0,0,0-.306.1l-.309.311,4.241,4.24a.617.617,0,0,0,1.046-.322l.382-2.058,2.064-.387a.609.609,0,0,0,.474-.425A.617.617,0,0,0,24.78,23.9Z" transform="translate(4.906 12.624)" fill="#b1b1b1"/>
      <path id="Path_18873" data-name="Path 18873" d="M16.38,23.05l-1.869.3A1.93,1.93,0,0,1,12.3,21.738l-.164-1.091L8.889,23.9a.617.617,0,0,0,.321,1.044l2.063.385.387,2.061a.614.614,0,0,0,1.041.324l4.24-4.241-.309-.313A.349.349,0,0,0,16.38,23.05Z" transform="translate(0.001 12.624)" fill="#b1b1b1"/>
      <path id="Path_18874" data-name="Path 18874" d="M22.565,4.217H7.361a.992.992,0,0,0,0,1.984h15.2a.992.992,0,0,0,0-1.984Z" transform="translate(-1.428 2.578)" fill="#b1b1b1"/>
      <path id="Path_18875" data-name="Path 18875" d="M22.565,7.371H7.361a.99.99,0,1,0,0,1.98h15.2a.99.99,0,1,0,0-1.98Z" transform="translate(-1.428 4.507)" fill="#b1b1b1"/>
      <path id="Path_18876" data-name="Path 18876" d="M13.888,32.576l-.749-.374a2.624,2.624,0,0,1-.527-.359h-6.4a.8.8,0,0,1-.794-.793V2.907a.8.8,0,0,1,.794-.8h21.3a.8.8,0,0,1,.794.8V17.421a2.751,2.751,0,0,1,2.079,2.258l.032-16.77A2.908,2.908,0,0,0,27.511,0H6.212A2.913,2.913,0,0,0,3.3,2.909V31.053a2.914,2.914,0,0,0,2.909,2.91H12.5Z" transform="translate(-3.303)" fill="#b1b1b1"/>
    </g>
  </g>
</svg>
