<svg xmlns="http://www.w3.org/2000/svg" width="15.474" height="23.658" viewBox="0 0 15.474 23.658">
  <g id="Group_2732" data-name="Group 2732" transform="translate(0.152 0.156)">
    <g id="Group_2731" data-name="Group 2731">
      <path id="Path_18854" data-name="Path 18854" d="M311.139,125.071a2.942,2.942,0,0,0-4.019,1.077l-2.513,4.352-6.3,10.918a.7.7,0,0,0-.09.273l-.621,5.559a.7.7,0,0,0,1.112.642l4.5-3.317a.7.7,0,0,0,.191-.214l8.816-15.27A2.946,2.946,0,0,0,311.139,125.071Zm-11.976,20.742.324-2.9,2.028,1.171Zm3.373-2.76-2.67-1.541,7.075-12.254,2.67,1.541ZM311,128.389l-.691,1.2-2.67-1.541.691-1.2a1.541,1.541,0,0,1,2.67,1.541Z" transform="translate(-297.589 -124.675)" fill="#b1b1b1" stroke="#b1b1b1" stroke-width="0.3"/>
    </g>
  </g>
</svg>
