<svg xmlns="http://www.w3.org/2000/svg" width="13.191" height="13.19" viewBox="0 0 13.191 13.19">
  <g id="Group_2716" data-name="Group 2716" transform="translate(0.15 0.15)">
    <g id="Group_2715" data-name="Group 2715">
      <path id="Path_18846" data-name="Path 18846" d="M126.452,54a6.442,6.442,0,0,0-4.422,11.13.694.694,0,0,0,.075.07,6.433,6.433,0,0,0,8.693,0,.7.7,0,0,0,.075-.07A6.442,6.442,0,0,0,126.452,54Zm0,11.489a5.017,5.017,0,0,1-3.047-1.028,3.5,3.5,0,0,1,6.094,0A5.017,5.017,0,0,1,126.452,65.489Zm-1.121-5.324V59.71a1.121,1.121,0,1,1,2.242,0v.455a1.121,1.121,0,1,1-2.242,0Zm5.18,3.27a4.86,4.86,0,0,0-2.064-1.73,2.509,2.509,0,0,0,.527-1.54V59.71a2.522,2.522,0,1,0-5.044,0v.455a2.509,2.509,0,0,0,.527,1.54,4.86,4.86,0,0,0-2.064,1.73,5.044,5.044,0,1,1,8.118,0Z" transform="translate(-120.007 -54)" fill="#b1b1b1" stroke="#b1b1b1" stroke-width="0.3"/>
    </g>
  </g>
</svg>
