<svg xmlns="http://www.w3.org/2000/svg" width="9.245" height="9.243" viewBox="0 0 9.245 9.243">
  <path id="Path_1921" data-name="Path 1921" d="M36.47,9.243a4.622,4.622,0,1,0-4.623-4.621A4.627,4.627,0,0,0,36.47,9.243ZM34.438,3.427a1.673,1.673,0,0,1,1.819-1.6V1.416a.231.231,0,1,1,.458,0v.407c.6.016,1.819.389,1.819,1.14a.459.459,0,0,1-.482.473c-.5,0-.49-.818-1.337-.833V4.054c1.01.214,1.9.512,1.9,1.689,0,1.023-.764,1.544-1.9,1.613v.473a.231.231,0,1,1-.458,0V7.356c-1.291-.032-1.933-.8-1.933-1.408a.44.44,0,0,1,.473-.481c.856,0,.191,1.054,1.46,1.109v-1.6C35.124,4.772,34.438,4.276,34.438,3.427Z" transform="translate(-31.847)" fill="#b1b1b1"/>
</svg>
