<svg xmlns="http://www.w3.org/2000/svg" width="30.869" height="28.067" viewBox="0 0 30.869 28.067">
  <path id="Path_1839" data-name="Path 1839" d="M33.532,54.156v3.819a3.119,3.119,0,0,1-3.126,3.117H28.434a3.135,3.135,0,0,1-3.145-3.117V54.142H16.4v3.832a3.135,3.135,0,0,1-3.144,3.117H11.285a3.119,3.119,0,0,1-3.126-3.117V54.156a2.843,2.843,0,0,0-2.748,2.828v22.38a2.844,2.844,0,0,0,2.83,2.846H33.45a2.847,2.847,0,0,0,2.83-2.846V56.983A2.842,2.842,0,0,0,33.532,54.156Zm-.916,23.814a1.223,1.223,0,0,1-1.223,1.223H10.244a1.223,1.223,0,0,1-1.223-1.223V66.409a1.223,1.223,0,0,1,1.223-1.224H31.393a1.223,1.223,0,0,1,1.223,1.224v11.56Z" transform="translate(-5.411 -54.142)" fill="#b1b1b1"/>
</svg>
