<svg xmlns="http://www.w3.org/2000/svg" width="29.869" height="27.158" viewBox="0 0 29.869 27.158">
  <path id="Path_18783" data-name="Path 18783" d="M32.621,54.155v3.7A3.018,3.018,0,0,1,29.6,60.866H27.688a3.033,3.033,0,0,1-3.043-3.016V54.142h-8.6V57.85A3.033,3.033,0,0,1,13,60.866H11.094A3.018,3.018,0,0,1,8.07,57.85v-3.7a2.75,2.75,0,0,0-2.659,2.736V78.546A2.752,2.752,0,0,0,8.149,81.3H32.542a2.755,2.755,0,0,0,2.738-2.754V56.891A2.75,2.75,0,0,0,32.621,54.155ZM31.735,77.2a1.184,1.184,0,0,1-1.184,1.184H10.087A1.184,1.184,0,0,1,8.9,77.2V66.012a1.184,1.184,0,0,1,1.184-1.184H30.551a1.184,1.184,0,0,1,1.184,1.184V77.2Z" transform="translate(-5.411 -54.142)" fill="#b1b1b1"/>
</svg>
