<svg xmlns="http://www.w3.org/2000/svg" width="26.136" height="32.301" viewBox="0 0 26.136 32.301">
  <g id="Group_2714" data-name="Group 2714" transform="translate(0.15 0.15)">
    <g id="Group_2713" data-name="Group 2713">
      <path id="Path_18845" data-name="Path 18845" d="M25.234,9.3a.617.617,0,0,0,.609-.625v-6.8A1.854,1.854,0,0,0,24.015,0H1.835A1.854,1.854,0,0,0,.007,1.875V30.126A1.854,1.854,0,0,0,1.835,32h22.18a1.854,1.854,0,0,0,1.828-1.875v-4.6a.61.61,0,1,0-1.219,0v4.6a.618.618,0,0,1-.609.625H1.835a.618.618,0,0,1-.609-.625V1.875a.618.618,0,0,1,.609-.625h22.18a.618.618,0,0,1,.609.625v6.8A.617.617,0,0,0,25.234,9.3Z" transform="translate(-0.007)" fill="#b1b1b1" stroke="#b1b1b1" stroke-width="0.3"/>
    </g>
  </g>
</svg>
